HIERARCHY
ROOT root
{
	OFFSET	0	13.1	24.9
	CHANNELS 6  Xposition Yposition Zposition Xrotation Yrotation Zrotation
	JOINT spine_1
	{
		OFFSET	0	9.99999	0
		CHANNELS 3  Xrotation Yrotation Zrotation
		JOINT spine_2
		{
			OFFSET	0	112	-10
			CHANNELS 3  Xrotation Yrotation Zrotation
			JOINT spine_3
			{
				OFFSET	0	206.5	19.3
				CHANNELS 3  Xrotation Yrotation Zrotation
				JOINT spine_4
				{
					OFFSET	0	110.4	14.6
					CHANNELS 3  Xrotation Yrotation Zrotation
					JOINT neck_1
					{
						OFFSET	0	71.8	-50.3
						CHANNELS 3  Xrotation Yrotation Zrotation
						JOINT neck_2
						{
							OFFSET	0	86.2	-25.8
							CHANNELS 3  Xrotation Yrotation Zrotation
							JOINT head_ee
							{
								OFFSET	0	179.8	-8.7
								CHANNELS 3  Xrotation Yrotation Zrotation
								End Site
								{
									OFFSET	1	0	0
								}
							}
						}
					}
					JOINT left_clavicle
					{
						OFFSET	-43.2	22.4	-70.8
						CHANNELS 3  Xrotation Yrotation Zrotation
						JOINT left_shoulder
						{
							OFFSET	-93.9	-5.79999	48.7
							CHANNELS 3  Xrotation Yrotation Zrotation
							JOINT left_elbow
							{
								OFFSET	-291.4	-30.8	15.2
								CHANNELS 3  Xrotation Yrotation Zrotation
								JOINT left_lowarm_twist
								{
									OFFSET	-110.7	-3.89999	13.6
									CHANNELS 3  Xrotation Yrotation Zrotation
									JOINT left_hand
									{
										OFFSET	-110.7	-3.89999	13.6
										CHANNELS 3  Xrotation Yrotation Zrotation
										JOINT left_ee
										{
											OFFSET	-80.8	-5.10001	12.1
											CHANNELS 3  Xrotation Yrotation Zrotation
											End Site
											{
												OFFSET	1	0	0
											}
										}
									}
								}
							}
						}
					}
					JOINT right_clavicle
					{
						OFFSET	43.2	22.4	-70.8
						CHANNELS 3  Xrotation Yrotation Zrotation
						JOINT right_shoulder
						{
							OFFSET	93.9	-5.79999	48.7
							CHANNELS 3  Xrotation Yrotation Zrotation
							JOINT right_elbow
							{
								OFFSET	291.4	-30.8	15.2
								CHANNELS 3  Xrotation Yrotation Zrotation
								JOINT right_lowarm_twist
								{
									OFFSET	110.7	-3.89999	13.6
									CHANNELS 3  Xrotation Yrotation Zrotation
									JOINT right_hand
									{
										OFFSET	110.7	-3.89999	13.6
										CHANNELS 3  Xrotation Yrotation Zrotation
										JOINT right_ee
										{
											OFFSET	80.8	-5.10001	12.1
											CHANNELS 3  Xrotation Yrotation Zrotation
											End Site
											{
												OFFSET	1	0	0
											}
										}
									}
								}
							}
						}
					}
				}
			}
		}
	}
	JOINT left_hip
	{
		OFFSET	-82.8	-127.5	0.300001
		CHANNELS 3  Xrotation Yrotation Zrotation
		JOINT left_knee
		{
			OFFSET	-28.2	-396.7	2.2
			CHANNELS 3  Xrotation Yrotation Zrotation
			JOINT left_ankle
			{
				OFFSET	-11.7	-411.3	35.4
				CHANNELS 3  Xrotation Yrotation Zrotation
				JOINT left_toes
				{
					OFFSET	0	-60	-88.6
					CHANNELS 3  Xrotation Yrotation Zrotation
					JOINT left_foot_ee
					{
						OFFSET	-22.5	-16.5	-42.2
						CHANNELS 3  Xrotation Yrotation Zrotation
						End Site
						{
							OFFSET	1	0	0
						}
					}
				}
			}
		}
	}
	JOINT right_hip
	{
		OFFSET	82.8	-127.5	0.300001
		CHANNELS 3  Xrotation Yrotation Zrotation
		JOINT right_knee
		{
			OFFSET	28.2	-396.7	2.2
			CHANNELS 3  Xrotation Yrotation Zrotation
			JOINT right_ankle
			{
				OFFSET	11.7	-411.3	35.4
				CHANNELS 3  Xrotation Yrotation Zrotation
				JOINT right_toes
				{
					OFFSET	0	-60	-88.6
					CHANNELS 3  Xrotation Yrotation Zrotation
					JOINT right_foot_ee
					{
						OFFSET	22.5	-16.5	-42.2
						CHANNELS 3  Xrotation Yrotation Zrotation
						End Site
						{
							OFFSET	1	0	0
						}
					}
				}
			}
		}
	}
}
MOTION
Frames: 11
Frame Time: 0.02
1052.64 704.919 -1580.53 6.30485 72.9185 1.04573 2.13857 -0.102293 -2.26569 2.14142 0.0420486 -2.26761 2.13945 0.435142 -2.22588 2.13255 0.0782391 -2.26665 -10.2738 -3.68229 0.26329 -10.2906 -7.11535 -0.676985 -0.0 0.0 -0.0 5.41255 -7.13613 10.2 -33.6429 -12.7639 74.2346 0.816933 -22.0323 0.159037 7.95248 0.211561 -0.993 2.41068 -9.63688 12.269 -0.0 0.0 -0.0 10.2463 13.1505 -20.3081 -17.04 33.6285 -47.7004 0.171529 4.85689 -0.00727447 15.4249 -0.283316 1.94409 2.02445 20.3452 -4.75959 0.0 0.0 0.0 24.8256 -25.9278 -0.195725 -48.5857 -1.10124 7.15539 21.355 -12.634 -3.07536 37.3529 -0.0 -0.0 -0.0 0.0 -0.0 5.40877 14.9026 -16.5928 -9.96951 -0.280357 -1.50239 31.385 -23.0309 4.21846 32.6489 -0.0 -0.0 0.0 0.0 0.0 
1037.16 710.139 -1586.76 2.27217 73.4778 5.19946 2.14415 -0.0496796 -2.20042 2.14684 0.0904053 -2.19913 2.14305 0.47076 -2.15007 2.13662 0.125374 -2.19741 -8.4795 -3.68296 -0.421413 -8.48586 -6.59367 -1.24461 -0.0 0.0 -0.0 5.27813 -7.21013 9.9196 -34.9095 -12.7729 74.775 0.909077 -24.2431 0.195251 8.82376 0.22631 -1.10332 2.50157 -9.92067 12.7708 -0.0 0.0 -0.0 10.8296 15.6151 -21.5209 -18.3231 33.0848 -45.1337 0.180968 5.12278 -0.00809557 15.3554 -0.283221 1.93521 1.74524 20.8614 -2.67419 0.0 0.0 0.0 29.3107 -26.8865 1.3054 -48.386 -1.08453 7.12959 20.4199 -12.7315 -2.95707 36.7921 -0.0 -0.0 -0.0 0.0 -0.0 4.31159 14.4831 -16.5838 -4.98419 -0.172887 -0.745148 34.3691 -23.8213 4.56279 32.282 -0.0 -0.0 0.0 0.0 0.0 
1031.92 706.85 -1589.02 -1.72468 72.9803 9.0092 2.10949 0.0141242 -1.94337 2.11158 0.137734 -1.93854 2.10667 0.473317 -1.88493 2.10175 0.169747 -1.936 -6.51736 -3.551 -0.249233 -6.51516 -6.39851 -0.943335 -0.0 0.0 -0.0 4.97062 -5.74144 9.36355 -37.0184 -12.3115 74.3582 0.966241 -25.5775 0.21933 9.58987 0.237891 -1.20049 2.57779 -10.2824 13.1365 -0.0 0.0 -0.0 11.2059 17.3124 -22.2888 -19.3542 32.5898 -43.2798 0.186551 5.27995 -0.00860168 14.739 -0.281907 1.85649 1.66267 22.9861 -1.15189 0.0 0.0 0.0 33.4133 -28.362 0.815827 -48.2463 -1.07289 7.1115 19.8208 -10.5349 -2.8421 36.3586 -0.0 -0.0 -0.0 0.0 -0.0 3.515 14.1936 -16.5807 -1.76367 -0.0685902 -0.261961 36.1725 -26.2029 4.82184 32.3197 -0.0 -0.0 0.0 0.0 0.0 
1016.85 701.479 -1596.32 -4.2139 72.9537 11.8684 2.27428 0.0431936 -1.83592 2.27614 0.15991 -1.82945 2.27072 0.471064 -1.775 2.26637 0.184873 -1.8271 -5.14237 -4.00991 -0.337216 -5.13262 -7.12494 -1.04489 -0.0 0.0 -0.0 5.48963 -4.46442 10.4745 -36.6261 -11.8892 73.002 0.786905 -21.2962 0.147951 10.3706 0.248354 -1.29966 2.78936 -11.5503 14.0284 -0.0 0.0 -0.0 11.4413 17.1708 -22.8306 -18.4184 33.0954 -41.4661 0.30051 8.46726 -0.0222454 12.8509 -0.272615 1.61552 1.32543 26.0133 2.42346 0.0 0.0 0.0 36.9442 -29.1564 1.46019 -48.1292 -1.06317 7.09632 17.4225 -5.67665 -2.4695 36.1258 -0.0 -0.0 -0.0 0.0 -0.0 2.26151 14.0803 -16.4788 0.335414 0.0139567 0.0495796 37.692 -27.2323 5.01394 32.4161 -0.0 -0.0 0.0 0.0 0.0 
1009.44 701.481 -1605.08 -4.1971 72.7597 12.0847 2.03898 0.0381919 -1.65693 2.04049 0.143534 -1.65114 2.03619 0.430899 -1.60039 2.03265 0.172776 -1.64834 -4.37983 -4.31732 -0.418326 -4.36443 -7.59185 -1.13733 -0.0 0.0 -0.0 5.59996 -2.98958 10.7499 -37.2581 -11.2847 71.471 0.643897 -17.6911 0.100206 10.9411 0.255145 -1.37222 2.94316 -12.4495 14.6812 -0.0 0.0 -0.0 11.3517 16.6341 -22.6539 -18.1045 33.2687 -39.9781 0.38594 10.8236 -0.0365623 11.5265 -0.261362 1.44674 1.0815 28.4479 5.08232 0.0 0.0 0.0 39.4194 -29.7059 1.93313 -48.0545 -1.05698 7.08662 15.4967 -2.19557 -2.18873 35.9626 -0.0 -0.0 -0.0 0.0 -0.0 1.4119 13.995 -16.424 1.87311 0.0816536 0.275817 38.7395 -27.746 5.13923 32.4847 -0.0 -0.0 0.0 0.0 0.0 
992.436 702.89 -1608.94 -4.46247 72.9632 12.5442 1.83817 0.0370603 -1.5625 1.83951 0.136399 -1.55698 1.83572 0.412624 -1.50751 1.83259 0.169394 -1.55374 -4.33839 -4.68098 -0.629769 -4.32061 -8.09537 -1.41122 -0.0 0.0 -0.0 5.63897 -0.349564 10.9016 -37.6583 -12.0707 69.4193 0.547655 -15.1787 0.0729698 11.3403 0.259468 -1.42303 3.05906 -13.0758 15.1936 -0.0 0.0 -0.0 11.237 15.4892 -22.445 -17.821 33.4461 -38.976 0.5107 14.1973 -0.0635994 9.76206 -0.240314 1.22235 0.729206 28.9752 7.55953 0.0 0.0 0.0 41.5602 -30.1971 2.97826 -47.9925 -1.05186 7.07857 14.6151 1.61186 -2.05311 36.3693 -0.0 -0.0 -0.0 0.0 -0.0 1.29368 14.2283 -16.9283 4.07745 0.189256 0.596854 38.0383 -26.4756 5.02325 32.9729 -0.0 -0.0 0.0 0.0 0.0 
976.605 700.889 -1613.87 -5.8795 72.8673 13.7104 2.00415 0.0645624 -1.31907 2.0051 0.14836 -1.3123 2.00159 0.376955 -1.26572 1.9994 0.172345 -1.30936 -3.79418 -5.41136 -1.51597 -3.76742 -8.71753 -2.40619 -0.0 0.0 -0.0 5.99282 1.56367 11.6252 -37.2389 -12.7561 68.2774 0.486049 -13.5379 0.057691 11.8697 0.264653 -1.49045 3.12553 -13.224 15.5863 -0.0 0.0 -0.0 11.1664 14.715 -22.315 -17.1309 33.7679 -38.8356 0.606035 16.7105 -0.0890089 8.51284 -0.221239 1.06393 0.330702 29.1483 10.1812 0.0 0.0 0.0 43.7373 -30.6053 3.88199 -45.9739 -0.889875 6.81345 13.8739 5.49857 -1.9455 36.6574 -0.0 -0.0 -0.0 0.0 -0.0 0.0893088 15.4842 -17.0763 3.03967 0.137056 0.446219 37.4633 -25.9 4.94576 33.3235 -0.0 -0.0 0.0 0.0 0.0 
959.493 696.732 -1616.47 -7.2129 73.6514 13.9873 2.09884 -0.202904 -1.0738 2.09947 -0.134168 -1.08453 2.10199 0.0567802 -1.09132 2.10035 -0.116276 -1.08659 -3.08013 -6.58463 -4.15941 -3.01708 -8.73684 -5.27772 -0.0 0.0 -0.0 6.29912 3.188 12.2236 -36.9454 -13.2257 67.4108 0.470453 -13.1188 0.0540956 12.6782 0.27137 -1.5935 3.48458 -13.3602 18.0362 -0.0 0.0 -0.0 10.7663 10.4374 -21.5156 -16.6325 34.0018 -38.7389 0.96544 25.559 -0.218985 3.30842 -0.104762 0.409535 -0.500728 28.7968 15.4209 0.0 0.0 0.0 42.3589 -32.9941 2.98959 -40.3326 -0.488061 6.04477 6.93998 8.8179 -0.996516 38.6475 -0.0 -0.0 -0.0 0.0 -0.0 -0.247801 17.2096 -15.3678 2.3499 0.103877 0.345595 37.0107 -25.6556 4.89163 32.9261 -0.0 -0.0 0.0 0.0 0.0 
942.902 704.924 -1619.93 -10.1062 73.7314 16.513 1.87362 -0.403563 -1.03104 1.87415 -0.337141 -1.05462 1.88043 -0.144093 -1.09778 1.87889 -0.315648 -1.06125 -0.911442 -7.90221 -5.74299 -0.796477 -9.53673 -7.02647 -0.0 0.0 -0.0 6.04531 4.26776 11.7407 -36.7998 -13.6439 66.718 0.546193 -15.1401 0.0725876 13.3179 0.275653 -1.67509 3.79968 -14.0528 19.9259 -0.0 0.0 -0.0 10.6593 6.11049 -21.2611 -16.4476 33.9712 -39.2927 1.22195 31.1859 -0.341024 -0.416349 0.0148557 -0.0510962 -1.38443 28.4403 21.1536 0.0 0.0 0.0 40.5878 -34.4459 2.90213 -32.0064 -0.0379982 4.84839 -1.21182 13.5357 0.178537 38.8344 -0.0 -0.0 -0.0 0.0 -0.0 0.350941 18.653 -14.919 1.72029 0.0746533 0.253413 36.6012 -23.0036 4.77355 32.6881 -0.0 -0.0 0.0 0.0 0.0 
918.948 699.985 -1623.61 -10.0894 73.3837 16.1462 1.91292 -0.362275 -0.909271 1.91333 -0.303684 -0.930479 1.91832 -0.133896 -0.969577 1.91712 -0.285335 -0.936268 -0.909693 -7.77617 -5.52386 -0.800693 -9.48771 -6.77934 -0.0 0.0 -0.0 6.04591 4.22694 11.7418 -36.2003 -13.9002 66.3099 0.562236 -15.5635 0.0768349 13.3601 0.275904 -1.68047 3.80942 -14.1146 19.9643 -0.0 0.0 -0.0 10.6624 6.15681 -21.2687 -16.4779 34.0301 -38.7615 1.22188 31.1845 -0.340988 -0.415068 0.0148093 -0.0509391 -1.41118 28.4322 21.3313 0.0 0.0 0.0 42.2453 -34.6553 2.9537 -30.7193 0.0158444 4.65822 -1.23481 13.9113 0.182043 38.7494 -0.0 -0.0 -0.0 0.0 -0.0 -1.40137 19.4221 -14.7042 0.91716 0.0388522 0.135378 36.5405 -22.5978 4.75689 32.6923 -0.0 -0.0 0.0 0.0 0.0 
907.723 701.6 -1626.85 -10.5356 73.2266 17.1618 1.81384 -0.366431 -1.03177 1.81438 -0.300038 -1.05299 1.81998 -0.106715 -1.08969 1.81843 -0.277462 -1.05916 0.503356 -8.04107 -4.16849 0.608997 -10.8489 -5.30019 -0.0 0.0 -0.0 5.97259 4.1246 11.6031 -35.732 -14.1414 65.9629 0.641809 -17.6373 0.0995721 13.4967 0.276687 -1.6979 3.84726 -14.4484 20.0658 -0.0 0.0 -0.0 10.9045 5.98649 -21.7918 -16.0005 33.9806 -39.5534 1.20036 30.7356 -0.329922 -1.45736 0.0536233 -0.178376 -1.74867 28.3356 23.5928 0.0 0.0 0.0 43.2909 -34.783 3.07293 -29.8173 0.0510213 4.52426 -2.66812 15.7619 0.39596 37.507 -0.0 -0.0 -0.0 0.0 -0.0 -1.77522 19.9013 -14.9284 0.325143 0.0135254 0.0480624 36.3912 -21.0839 4.70523 32.4147 -0.0 -0.0 0.0 0.0 0.0 
